<svg id="bullet" xmlns="http://www.w3.org/2000/svg" viewBox="0 0 22 22" width="22" height="22">
  <defs>
    <style>
      .cls-1 {
        fill: #999;
      }
    </style>
  </defs>
  <title>bullet</title>
  <path class="cls-1" d="M22,22H0V0H22V22ZM2,20H20V2H2V20Z"/>
  <path class="cls-1" d="M14.84,10.49L11.78,7.18A0.46,0.46,0,0,0,11.4,7a0.48,0.48,0,0,0-.38.18A0.58,0.58,0,0,0,11,8l2.23,2.41H7.53a0.5,0.5,0,0,0-.38.17,0.61,0.61,0,0,0,0,.82,0.5,0.5,0,0,0,.38.17h5.72L11,14a0.58,0.58,0,0,0,0,.82,0.48,0.48,0,0,0,.38.18,0.46,0.46,0,0,0,.38-0.18l3.06-3.31A0.5,0.5,0,0,0,15,11.27,0.4,0.4,0,0,0,15,11a0.4,0.4,0,0,0,0-.27A0.5,0.5,0,0,0,14.84,10.49Z"/>
</svg>
