<svg xmlns="http://www.w3.org/2000/svg" viewBox="0 0 19 19" width="19" height="19">
  <title>icon-add</title>
  <path d="M12.4,10.2H10.2v2.2a0.7,0.7,0,0,1-.7.7L9,12.9a0.7,0.7,0,0,1-.2-0.5V10.2H6.6L6,10A0.8,0.8,0,0,1,6,9l0.5-.2H8.8V6.6A0.7,0.7,0,0,1,9,6.1l0.5-.2a0.7,0.7,0,0,1,.7.7V8.8h2.2A0.7,0.7,0,0,1,12.4,10.2Zm-2.9-8a7.2,7.2,0,0,0-2.8.6,7.3,7.3,0,1,0,5.7,0A7.2,7.2,0,0,0,9.5,2.2ZM9.5,19a9.3,9.3,0,0,1-3.7-.7A9.4,9.4,0,0,1,.7,13.2a9.6,9.6,0,0,1,0-7.4A9.4,9.4,0,0,1,5.8.7a9.6,9.6,0,0,1,7.4,0,9.4,9.4,0,0,1,5.1,5.1,9.6,9.6,0,0,1,0,7.4,9.4,9.4,0,0,1-5.1,5.1A9.3,9.3,0,0,1,9.5,19Z" transform="translate(0 0)" style="fill: #fff"/>
</svg>
