<svg id="Layer_1" data-name="Layer 1" xmlns="http://www.w3.org/2000/svg" width="0.2221in" height="0.3332in" viewBox="0 0 15.9941 23.9905"><defs><style>.cls-1{fill:#0a7ea9;}</style></defs><title>icon-location</title><g id="Page-1"><g id="Desktop-Portrait"><g id="Icons_-Buttons_-Logos" data-name="Icons -Buttons -Logos"><g id="Icons"><path id="icon-location" class="cls-1" d="M8.005,10.9954a2.9988,2.9988,0,1,1,2.9987-2.9987A2.9988,2.9988,0,0,1,8.005,10.9954M8.005,0A7.9967,7.9967,0,0,0,.0083,7.9967a7.7564,7.7564,0,0,0,1,3.9183L7.5552,23.76a.51.51,0,0,0,.45.23.56.56,0,0,0,.44-.25L15.0021,11.925a8.1281,8.1281,0,0,0,1-3.9283A7.9967,7.9967,0,0,0,8.005,0" transform="translate(-0.0076)"/></g></g></g></g></svg>