<?xml version="1.0" encoding="utf-8"?>
<!-- Generator: Adobe Illustrator 23.0.3, SVG Export Plug-In . SVG Version: 6.00 Build 0)  -->
<svg version="1.1" id="Layer_1" xmlns="http://www.w3.org/2000/svg" xmlns:xlink="http://www.w3.org/1999/xlink" x="0px" y="0px"
	 viewBox="0 0 29 18" style="enable-background:new 0 0 29 18;" xml:space="preserve">
<style type="text/css">
	.st0{fill:#0A7EA9;}
</style>
<title>icon-arrow</title>
<g id="Page-1">
	<g id="Desktop-Portrait">
		<g id="Icons_-Buttons_-Logos">
			<g id="Icons">
				<path id="icon-arrow" class="st0" d="M28.8,8.4l-8-8.2c-0.3-0.3-0.8-0.3-1.1,0c0,0,0,0,0,0c-0.3,0.3-0.3,0.8,0,1.1l6.7,6.9H0.8
					C0.3,8.3,0,8.7,0.1,9.1c0,0.4,0.3,0.7,0.7,0.7h25.6l-6.6,6.8c-0.3,0.3-0.3,0.8,0,1.1c0.1,0.1,0.3,0.2,0.5,0.2
					c0.2,0,0.4-0.1,0.5-0.2l8-8.2C29.1,9.2,29.1,8.7,28.8,8.4"/>
			</g>
		</g>
	</g>
</g>
</svg>
