<svg id="Layer_1" data-name="Layer 1" xmlns="http://www.w3.org/2000/svg" width="0.2084in" height="0.1806in" viewBox="0 0 15.0022 13.0005"><defs><style>.cls-1{fill:#0a7ea9;}</style></defs><title>icon-ext-link-blue</title><path class="cls-1" d="M15,.5V4.9a.5.5,0,0,1-.5.5l-.4-.2L12.6,3.8,7.2,9.3H6.8l-1-1V7.9l5.5-5.5L9.8.9A.5.5,0,0,1,9.6.5.5.5,0,0,1,9.8.2l.4-.2h4.3l.4.2A.5.5,0,0,1,15,.5ZM11.8,7.9v2.7A2.39,2.39,0,0,1,9.4,13h-7a2.3,2.3,0,0,1-1.7-.7A2.3,2.3,0,0,1,0,10.6v-7A2.4,2.4,0,0,1,.7,1.8a2.3,2.3,0,0,1,1.7-.7H8.3a.3.3,0,0,1,.3.3h0v.5a.3.3,0,0,1-.3.3H2.4a1.3,1.3,0,0,0-.9.4,1.3,1.3,0,0,0-.4,1v7a1.3,1.3,0,0,0,.4,1,1.3,1.3,0,0,0,.9.4h7a1.3693,1.3693,0,0,0,1.3-1.4V7.7h.7a.3.3,0,0,1,.3.3h0Z" transform="translate(0.0022)"/></svg>