<svg xmlns="http://www.w3.org/2000/svg" viewBox="0 0 15 13" width="15" height="13">
  <title>icon-ext-link-white</title>
  <path d="M15,0.5V4.9a0.5,0.5,0,0,1-.5.5l-0.4-.2L12.6,3.8,7.2,9.3H6.8l-1-1V7.9l5.5-5.5L9.8,0.9A0.5,0.5,0,0,1,9.6.5,0.5,0.5,0,0,1,9.8.2L10.2,0h4.3l0.4,0.2A0.5,0.5,0,0,1,15,.5ZM11.8,7.9v2.7a2.3,2.3,0,0,1-.7,1.7,2.3,2.3,0,0,1-1.7.7h-7a2.3,2.3,0,0,1-1.7-.7A2.3,2.3,0,0,1,0,10.6v-7A2.4,2.4,0,0,1,.7,1.8a2.3,2.3,0,0,1,1.7-.7H8.3a0.3,0.3,0,0,1,.3.3h0V1.9a0.3,0.3,0,0,1-.3.3H2.4a1.3,1.3,0,0,0-.9.4,1.3,1.3,0,0,0-.4,1v7a1.3,1.3,0,0,0,.4,1,1.3,1.3,0,0,0,.9.4h7a1.3,1.3,0,0,0,.9-0.4,1.3,1.3,0,0,0,.4-1V7.7h0.7a0.3,0.3,0,0,1,.3.3h0Z" transform="translate(0 0)" style="fill: #fff"/>
</svg>
