<svg id="Layer_1" data-name="Layer 1" xmlns="http://www.w3.org/2000/svg" viewBox="0 0 48 49" width="48" height="49"><defs><style>.cls-1{fill:#fefefe;}</style></defs><title>icon-video</title><g id="Page-1"><g id="Desktop-Portrait"><g id="Icons_-Buttons_-Logos" data-name="Icons,-Buttons,-Logos"><g id="Icons"><path id="icon-video" class="cls-1" d="M37,30.09L32,27v-6.1l5-3.14V30.09Zm-6,0a1.64,1.64,0,0,1-1.68,1.55h-17A1.38,1.38,0,0,1,11,30.12V17.86a1.38,1.38,0,0,1,1.37-1.53h17A1.64,1.64,0,0,1,31,17.86V30.09ZM0,49H48V0H0V49ZM27.2,19.4H23.86c-0.31,0-.86-0.13-0.86.19v0.59c0,0.32.55,0.24,0.86,0.24h3.31c0.32,0,.83.08,0.83-0.24V19.4H27.2Z"/></g></g></g></g></svg>
