<svg id="Layer_1" data-name="Layer 1" xmlns="http://www.w3.org/2000/svg" viewBox="0 0 48 49" width="48" height="49"><defs><style>.cls-1{fill:#fefefe;}</style></defs><title>icon-image</title><g id="Page-1"><g id="Desktop-Portrait"><g id="Icons_-Buttons_-Logos" data-name="Icons,-Buttons,-Logos"><g id="Icons"><path id="icon-image" class="cls-1" d="M37,31.66c0,1.9-1.75,3-3.62,3H14.16a2.91,2.91,0,0,1-3.16-3V21.59a3,3,0,0,1,3.16-3.21h3.9c0-2,1.51-4.08,3.38-4.08h4.67c1.87,0,3.38,2,3.38,4.08h3.9A3.42,3.42,0,0,1,37,21.59V31.66ZM0,49H48V0H0V49ZM23.77,30.07a3.45,3.45,0,1,1,3.38-3.45,3.42,3.42,0,0,1-3.38,3.45h0Zm0-9.55a6.1,6.1,0,1,0,6,6.1,6,6,0,0,0-6-6.1h0Z"/></g></g></g></g></svg>
