<?xml version="1.0" encoding="utf-8"?>
<!-- Generator: Adobe Illustrator 19.2.0, SVG Export Plug-In . SVG Version: 6.00 Build 0)  -->
<svg version="1.1" id="Layer_1" xmlns="http://www.w3.org/2000/svg" xmlns:xlink="http://www.w3.org/1999/xlink" x="0px" y="0px"
	 width="19px" height="19px" viewBox="0 0 19 19" style="enable-background:new 0 0 19 19;" xml:space="preserve">
<style type="text/css">
	.st0{fill:#FFFFFF;}
</style>
<title>icon-add</title>
<g>
	<path class="st0" d="M18.3,5.8c-1-2.3-2.8-4.1-5.1-5.1c-2.4-1-5-1-7.4,0c-2.3,1-4.1,2.8-5.1,5.1c-1,2.4-1,5,0,7.4
		c1,2.3,2.8,4.1,5.1,5.1C7,18.8,8.2,19,9.5,19c1.3,0,2.5-0.2,3.7-0.7c2.3-1,4.1-2.8,5.1-5.1C19.3,10.8,19.3,8.2,18.3,5.8z
		 M12.4,16.2c-3.7,1.6-8-0.2-9.6-3.9C1.3,8.7,3,4.4,6.7,2.8c0.9-0.4,1.8-0.6,2.8-0.6c1,0,2,0.2,2.9,0.6c1.7,0.7,3.1,2.1,3.9,3.9
		C17.8,10.4,16.1,14.7,12.4,16.2z"/>
	<path class="st0" d="M12.4,8.8l-5.9,0c-0.4,0-0.7,0.3-0.7,0.7c0,0.4,0.3,0.7,0.7,0.7l5.9,0c0.4,0,0.7-0.3,0.7-0.7
		C13.1,9.1,12.8,8.8,12.4,8.8z"/>
</g>
</svg>
