<svg id="Layer_1" data-name="Layer 1" xmlns="http://www.w3.org/2000/svg" width="1.625in" height="1.625in" viewBox="0 0 117 117"><defs><style>.cls-1{fill:#0a7ea9;}.cls-2{fill:#fff;}</style></defs><title>icon-awards</title><rect class="cls-1" width="117" height="117"/><path class="cls-2" d="M86,52a33.4,33.4,0,0,0,3-13H81l-.4,2.1a12.6027,12.6027,0,0,0-.2,2q-2.3,13.4-6.6,21.1A25.6,25.6,0,0,0,86,52ZM32,52A25.8,25.8,0,0,0,44,64.2q-4.2-7.7-6.6-21.1L37,39H29A33.4,33.4,0,0,0,32,52ZM94,35.1q0,12-3.4,19.1a31.4,31.4,0,0,1-9.8,11.7,34.1008,34.1008,0,0,1-12,5.5,17.2008,17.2008,0,0,1-7.2,4.8v5.2a6.506,6.506,0,0,0,.1.9,5.3,5.3,0,0,0,.9,1.8,9.4,9.4,0,0,0,2.3,2.3,14.7983,14.7983,0,0,0,4.6,1.9A29.4991,29.4991,0,0,0,77,89h2v5H39V89h2q14.2,0,15.5-7.2V76.2a17.2008,17.2008,0,0,1-7.2-4.8,34.4,34.4,0,0,1-12-5.5,31.4,31.4,0,0,1-9.8-11.7A38.1986,38.1986,0,0,1,24,39V34H36.5V24H81.3a79.9,79.9,0,0,1,0,10H94Z"/></svg>