<svg xmlns="http://www.w3.org/2000/svg" viewBox="0 0 28 28" width="28" height="28">
  <title>icon-phone-sm</title>
  <rect x="1" y="1" width="26" height="26" style="fill: none;stroke: #999;stroke-width: 2px"/>
  <path d="M14,9a19.7,19.7,0,0,0-6.7,1.1A5.4,5.4,0,0,0,6,12.3l0.3,0.5,2.4-.5,1-1.6a27.1,27.1,0,0,1,4.3-.2,27.5,27.5,0,0,1,4.3.3l1,1.6,2.4,0.5,0.3-.5A5.6,5.6,0,0,0,20.7,10,20.6,20.6,0,0,0,14,9Zm1.6,2.8-0.6.9H12.9l-0.5-.9H10.7c-0.4.8-2.6,5.1-2.6,5.5s0.2,0.3.5,0.3l1.7,0.2L14.1,18l3.9-.2,1.4-.2c0.3,0,.5-0.1.5-0.3s-2.2-4.6-2.6-5.5H15.6ZM14,16.5A1.6,1.6,0,0,1,12.4,15h0a1.6,1.6,0,0,1,3.2,0A1.6,1.6,0,0,1,14,16.5h0Z" style="fill: #999"/>
</svg>
