<?xml version="1.0" encoding="utf-8"?>
<!-- Generator: Adobe Illustrator 21.0.2, SVG Export Plug-In . SVG Version: 6.00 Build 0)  -->
<svg version="1.1" id="Layer_1" xmlns="http://www.w3.org/2000/svg" xmlns:xlink="http://www.w3.org/1999/xlink" x="0px" y="0px"
	 width="29px" height="18px" viewBox="0 0 29 18" style="enable-background:new 0 0 29 18;" xml:space="preserve">
<style type="text/css">
	.st0{fill:#FFFFFF;}
</style>
<title>icon-arrow</title>
<g id="Page-1">
	<g id="Desktop-Portrait">
		<g id="Icons_-Buttons_-Logos">
			<g id="Icons">
				<path id="icon-arrow" class="st0" d="M0.3,8.4l8-8.2c0.3-0.3,0.8-0.3,1.1,0c0,0,0,0,0,0c0.3,0.3,0.3,0.8,0,1.1L2.7,8.2h25.6
					c0.4,0,0.7,0.4,0.7,0.9c0,0.4-0.3,0.7-0.7,0.7H2.7l6.6,6.8c0.3,0.3,0.3,0.8,0,1.1C9.2,17.9,9,18,8.8,18c-0.2,0-0.4-0.1-0.5-0.2
					l-8-8.2C0,9.2,0,8.7,0.3,8.4"/>
			</g>
		</g>
	</g>
</g>
</svg>
