<?xml version="1.0" encoding="utf-8"?>
<!-- Generator: Adobe Illustrator 21.0.2, SVG Export Plug-In . SVG Version: 6.00 Build 0)  -->
<svg version="1.0" id="Layer_1" xmlns="http://www.w3.org/2000/svg" xmlns:xlink="http://www.w3.org/1999/xlink" x="0px" y="0px"
	 width="29px" height="18px" viewBox="0 0 29 18" style="enable-background:new 0 0 29 18;" xml:space="preserve">
<title>icon-arrow</title>
<g id="Page-1">
	<g id="Desktop-Portrait">
		<g id="Icons_-Buttons_-Logos">
			<g id="Icons">
				<path id="icon-arrow" style="fill:#FFFFFF;" d="M28.7,8.4c0.3,0.3,0.3,0.8,0,1.2l-8,8.2c-0.1,0.1-0.3,0.2-0.5,0.2
					s-0.4-0.1-0.5-0.3c-0.3-0.3-0.3-0.8,0-1.1l6.6-6.8H0.7C0.3,9.8,0,9.5,0,9.1c0-0.5,0.3-0.9,0.7-0.9h25.6l-6.7-6.9
					c-0.3-0.3-0.3-0.8,0-1.1l0,0c0.3-0.3,0.8-0.3,1.1,0L28.7,8.4"/>
			</g>
		</g>
	</g>
</g>
</svg>
