<svg id="Layer_1" data-name="Layer 1" xmlns="http://www.w3.org/2000/svg" width="0.3202in" height="0.3334in" viewBox="0 0 23.0543 24.0032"><defs><style>.cls-1{fill:#0a7ea9;}</style></defs><title>icon-phone</title><g id="Page-1"><g id="Desktop-Portrait"><g id="Icons_-Buttons_-Logos" data-name="Icons -Buttons -Logos"><g id="Icons"><path id="icon-phone" class="cls-1" d="M22.62,19.22,19,15.43a1.08,1.08,0,0,0-.89-.42,1.32,1.32,0,0,0-1,.42l-.64.64L22,21.82l.61-.67a1.42,1.42,0,0,0,.44-1,1.26,1.26,0,0,0-.38-.91h0Zm-8.24-.88a21.8519,21.8519,0,0,1-5.25-3.85A22.9091,22.9091,0,0,1,5.41,9.01l1.54-1.6L1.51,1.7l-.06.06A6.28,6.28,0,0,0,0,6.01c0,3.24,1.64,7.43,5.87,11.86s8.29,6.14,11.42,6.14a5.53,5.53,0,0,0,4-1.52l.06-.06-5.44-5.67ZM8.16,6.13a1.52,1.52,0,0,0,.44-1,1.25,1.25,0,0,0-.39-.9L4.59.38a1.27,1.27,0,0,0-.9-.37,1.42,1.42,0,0,0-1,.43l-.59.64,5.44,5.7Z" transform="translate(0.0043 -0.01)"/></g></g></g></g></svg>