<?xml version="1.0" encoding="utf-8"?>
<!-- Generator: Adobe Illustrator 21.0.0, SVG Export Plug-In . SVG Version: 6.00 Build 0)  -->
<svg version="1.1" id="Layer_1" xmlns="http://www.w3.org/2000/svg" xmlns:xlink="http://www.w3.org/1999/xlink" x="0px" y="0px"
	 width="122.4px" height="72.8px" viewBox="0 0 122.4 72.8" style="enable-background:new 0 0 122.4 72.8;" xml:space="preserve">
<g>
	<circle cx="23.4" cy="11.7" r="11.7"/>
	<path d="M61.2,39.1c-15.9,0-28.9,8.6-28.9,19.2c0,3.5,0,2,0,4.8c0,5.3,4.3,9.6,9.6,9.6h38.5c5.3,0,9.6-4.3,9.6-9.6v-4.8
		C90.1,47.7,77.2,39.1,61.2,39.1z"/>
	<path d="M47,18.1c0,8.1,6.5,14.6,14.6,14.6c8.1,0,14.6-6.6,14.6-14.6c0-8.1-6.6-14.6-14.6-14.6C53.5,3.5,47,10,47,18.1z"/>
	<circle cx="99.7" cy="11.7" r="11.7"/>
	<path d="M99.3,28.5c-9,0-16.8,3.4-20.6,8.4c9.1,3.8,15.4,10.5,16.6,18.5h19.3c4.3,0,7.7-3.4,7.7-7.7v-3.8
		C122.4,35.4,112.1,28.5,99.3,28.5z"/>
	<path d="M43.7,36.9c-3.8-5-11.6-8.4-20.6-8.4C10.3,28.5,0,35.4,0,43.9c0,2.8,0,1.6,0,3.8c0,4.3,3.4,7.7,7.7,7.7H27
		C28.3,47.4,34.6,40.7,43.7,36.9z"/>
</g>
<g>
</g>
<g>
</g>
<g>
</g>
<g>
</g>
<g>
</g>
<g>
</g>
<g>
</g>
<g>
</g>
<g>
</g>
<g>
</g>
<g>
</g>
<g>
</g>
<g>
</g>
<g>
</g>
<g>
</g>
</svg>
