<?xml version="1.0" encoding="utf-8"?>
<!-- Generator: Adobe Illustrator 21.0.0, SVG Export Plug-In . SVG Version: 6.00 Build 0)  -->
<svg version="1.1" id="Layer_1" xmlns="http://www.w3.org/2000/svg" xmlns:xlink="http://www.w3.org/1999/xlink" x="0px" y="0px"
	 width="122.3px" height="87.4px" viewBox="0 0 122.3 87.4" style="enable-background:new 0 0 122.3 87.4;" xml:space="preserve">
<path d="M121.9,11.2c-1.1-1.4-1.8-2.1-2.3-3.5c-0.4-1.4-1.6-2.4-2.4-2c-0.9,0.4-2.5,1.1-2.4,2.4c0.1,1.3,0.3,4.2-1.3,5.2
	s-6.8,1.7-7.9,2.7s-1,3-4.8,4.6c-1.7,0.7-1.2,2.5-2.3,3.5c-1.1,0.9-4,3.3-5.6,3.7c-1.6,0.4-1.6-0.9-0.8-2.6c0.8-1.7-0.1-3.6-0.6-4.1
	c-0.6-0.4-1.3,1.1-1.7-0.3c-0.4-1.5-1-4.1-2.5-3.8c-1.3,0.3-0.5,1.7-2,2c-0.6,0.1-2,0.6-1.6,4.4c0.4,3.8,0,5.6-0.8,5.9
	c-0.9,0.3-1.7-0.3-2-2c-0.3-1.7-0.5-5.1,0.4-6.9c0.9-1.8-0.5-1.9,0-2.9s3.6-1.8,4.4-1.8s1.1-0.7,1.1-1.3c-0.1-0.7-2.3-0.3-4.3-0.5
	c-2-0.2-2.9-1-3.5-1.7c-0.6-0.7-2.1,0.9-3,1.6c-0.8,0.7-1.6,1.7-2.5,0.7c-0.9-0.9-2.2-0.1-1.2-1.3c1-1.2,3.3-2.2,3.4-3.1
	c0.1-0.9-2.8-0.1-3.9-0.7c-1.1-0.6-4.6,0.1-6-1.7S65.3,8,58.1,7.5s-5.7,0-10.5-0.5S29.2,4.3,23.2,2.9c-2.5-0.6-8.4-2-9.9-2.5
	s-1.6-0.5-1.9,0c-0.3,0.5-0.3,0.9-1.2,0.8c-0.9-0.1-1-0.9-2-0.8S7.3,1.7,7.5,2.2s0,1.1-0.1,1.6S7.5,5,7.1,5.9S6.9,7.6,6.4,8.6
	C6,9.7,4,14.3,2.7,15.8s-0.6,1.4-0.9,2.8c-0.2,0.8-1.8,4.5-1.7,5.5c0.1,1,0.7,2,0.5,2.9c-0.2,0.9-0.3,2.2,0.4,3.2
	c0.7,1,1.3,5.1,1.5,6.5c0.1,1.4,1.8,3.5,1.9,4.7c0,1.2-0.7,1.7,2.2,3.7c2.9,2,3.8,3.5,4.4,4.8c0.6,1.3-0.3,2,3.2,2s2.8,0.1,3.1,0.4
	c0.3,0.2,0.7,1.7,4.6,3.2c3.9,1.6,3.2,2.8,10,3.6l0.3-1.2c0,0,3.4,0.2,3.8,0.2c0.4,0,2,2.9,3.6,4c1.6,1.2,0.6,3.4,3.3,4.5
	c2.7,1.1,2.3-1.5,4.5-1.4c2.2,0.1,2.1,1.2,3.7,4.2c1.5,3,3.3,8.5,7.2,8.5c0.6,0,0.8-0.4,0.5-2.7c-0.3-2.2,0.9-3.6,2.7-4.6
	c1.7-1,4.2-4.2,6.4-4.3c2.2-0.1,2.1,0.9,3.6,0.8c1.6-0.1,1.5-0.4,3.5,0.6c2,0.9,4.4,0.9,4.5,0.3c0.1-0.6-0.3-2.1-0.6-2.8
	c-0.4-0.7,0-2,2.6-1.5c2.6,0.5,3.5,0.2,4.6-0.3c1.1-0.5,2.4,1.8,3.8,1.9c1.3,0,1.4-1.8,2.9-1c1.5,0.8,3.3,2.7,3.2,4.2
	c-0.2,1.5,0.1,3,1.1,3.9c1.1,0.8,0.9,1.4,2.2,2.8s1.5,0.8,1.5,2s0.6,1.2,1.6,0.6c1-0.6,1.6-1.8,1.4-4.1c-0.2-2.2-1.6-3.1-2.8-6.3
	s-2.8-6.5-2.1-9.7s3.3-3.9,4.3-5.1c1.1-1.3,3.2-4,4.4-5.1c1.2-1.1,3.8-3,2.7-5.4c-1.1-2.4,0.4-5.6,0.6-6.8s-0.2-3.1,1-4.3
	c1.2-1.2-0.9-3.7,0.9-4.8c1.7-1.1,5.2-2.1,6-2.7s0.3-1.7-1-2.8c-1.3-1.1-0.5-1.5-0.2-2.4c0.3-0.9,0-1.7,1.2-2.5
	c1.1-0.8,1-1.8,2.1-2.2S122.9,12.6,121.9,11.2z M25.1,70.6c0,0-0.9-1.8-1.9-3.2s-2.3-2.1-3.4-2.5c-1.1-0.4-1.9-0.4-2.1,0.2
	c-0.7,1.9-1.9,0.6-2.8,1.1c-0.8,0.5,0.4,2-0.8,2.6c-0.7,0.4-2.1-0.6-3.2,1.3S7.9,74,7.3,74.3c-0.6,0.3,1.9,1.3,2.2,1.6
	s5.1-0.5,6.4,0.5s4.4,5.1,4.4,7.5c0,2.3,1,2.6,1,2.6s1,0,0.9-0.9c-0.2-0.9-0.5-5-0.5-5L21,80.4c0,0-0.2-0.6-0.4-1.1
	c-0.3-0.8-0.6-1.4,0.3-2.9S25.1,70.6,25.1,70.6z M44.9,84.2c-0.4-0.7-1.8-1.1-2-1.1c-0.4,0-0.1,0.5-0.3,0.9
	c-0.1,0.4-0.7,0.7-0.4,1.2c0.3,0.5,0.1,1.1,0.3,1.7c0.1,0.6,0.7,0.6,0.9,0.2c0.2-0.4,1-0.8,1.4-0.9s0.9-0.5,1.1-0.7
	C46.1,85.3,45.3,84.9,44.9,84.2z M31.4,77.8c0,0.3,0.7,0.7,1,0.6c0.3-0.1,0.7-1,0.3-1.1C32.4,77.1,31.4,77.3,31.4,77.8z M36.5,78.8
	c-0.5-0.2-0.8,0.3-0.8,0.3c0.2,0.4,0.5,0.9,1,0.9C37.1,80,37,79.1,36.5,78.8z M40.9,80.9c-0.9-0.4-2.1-0.7-2.1-0.4
	c-0.1,0.4,0.8,0.4,1.1,1c0.3,0.6,1.1,0.9,1.5,0.6C41.8,81.8,41.8,81.3,40.9,80.9z"/>
<g>
</g>
<g>
</g>
<g>
</g>
<g>
</g>
<g>
</g>
<g>
</g>
<g>
</g>
<g>
</g>
<g>
</g>
<g>
</g>
<g>
</g>
<g>
</g>
<g>
</g>
<g>
</g>
<g>
</g>
</svg>
