<?xml version="1.0" encoding="utf-8"?>
<!-- Generator: Adobe Illustrator 21.0.0, SVG Export Plug-In . SVG Version: 6.00 Build 0)  -->
<svg version="1.1" id="Layer_1" xmlns="http://www.w3.org/2000/svg" xmlns:xlink="http://www.w3.org/1999/xlink" x="0px" y="0px"
	 width="330.5px" height="93.7px" viewBox="0 0 330.5 93.7" style="enable-background:new 0 0 330.5 93.7;" xml:space="preserve">
<polygon points="34.6,66 38.9,45.3 34.6,25.3 330.5,25.3 324,46.9 330.5,66 "/>
<path d="M85.1,46.9l6.3-10.4l-10.2-6.7l1.1-12.1L70.3,16L66,4.6L54.5,8.4L45.7,0l-8.8,8.4L25.4,4.6L21.1,16L9.1,17.7l1.1,12.1
	L0,36.4l6.3,10.4L0,57.3L10.2,64L9.1,76.1l12.1,1.6l4.2,11.4l11.6-3.8l8.8,8.4l8.8-8.4L66,89.1l4.3-11.4l12.1-1.6L81.2,64l10.2-6.7
	L85.1,46.9L85.1,46.9z"/>
<g>
</g>
<g>
</g>
<g>
</g>
<g>
</g>
<g>
</g>
<g>
</g>
<g>
</g>
<g>
</g>
<g>
</g>
<g>
</g>
<g>
</g>
<g>
</g>
<g>
</g>
<g>
</g>
<g>
</g>
</svg>
