<?xml version="1.0" encoding="utf-8"?>
<!-- Generator: Adobe Illustrator 21.0.0, SVG Export Plug-In . SVG Version: 6.00 Build 0)  -->
<svg version="1.1" id="Layer_1" xmlns="http://www.w3.org/2000/svg" xmlns:xlink="http://www.w3.org/1999/xlink" x="0px" y="0px"
	 viewBox="0 0 333.7 69" style="enable-background:new 0 0 333.7 69;" xml:space="preserve">
<style type="text/css">
	.st0{fill:none;stroke:#000000;stroke-miterlimit:10;}
	.st1{fill:#000000;}
</style>
<g>
	<g>
		<path class="st1" d="M224.4,64.4V51.4h2.8v10.8h4.9v2.2H224.4z"/>
		<path class="st1" d="M234.4,64.4V51.4h7.5v2.3h-4.8v2.9h4.2v2.2h-4.2v3.4h4.9v2.3H234.4z"/>
		<path class="st1" d="M246.3,64.4h-2.8l5-13.1h2.7l5.1,13.1h-3l-0.9-2.5h-5.2L246.3,64.4z M250.5,56.6c-0.4-1.1-0.7-2.1-0.7-2.3h0
			c0,0.1-0.3,1.2-0.7,2.3l-1.1,3.1h3.7L250.5,56.6z"/>
		<path class="st1" d="M261.2,64.7c-2.1,0-3.5-0.8-4-1.3l1.2-1.9c0.3,0.2,1.3,1,2.8,1c1.3,0,2.1-0.7,2.1-1.5c0-1.2-1.4-1.5-2.9-2.3
			c-1.6-0.8-2.8-1.8-2.8-3.9c0-2.2,1.9-3.6,4.2-3.6c2.1,0,3.3,0.7,3.8,1.1l-1.1,1.9c-0.5-0.3-1.4-0.8-2.6-0.8
			c-1.1,0-1.7,0.5-1.7,1.4c0,1,1,1.4,2.4,2c1.7,0.8,3.4,1.7,3.4,4.1C265.9,63.2,264.1,64.7,261.2,64.7z"/>
		<path class="st1" d="M268.4,64.4V51.4h2.8v13.1H268.4z"/>
		<path class="st1" d="M283.5,64.4l-5.1-7.3c-0.7-1-1.2-1.9-1.3-2h0c0,0,0.1,0.9,0.1,1.7v7.5h-2.5V51.4h2.8l4.7,6.8
			c0.8,1.1,1.4,2.2,1.4,2.2h0c0-0.1-0.1-1-0.1-2.1v-6.9h2.5v13.1H283.5z"/>
		<path class="st1" d="M295.4,64.7c-4.5,0-6.9-3.3-6.9-6.8c0-3.6,2.6-6.8,7.1-6.8c2.2,0,3.4,0.5,4.3,1.2l-1.2,2.1
			c-0.7-0.5-1.6-0.9-3.1-0.9c-2.8,0-4.1,1.9-4.1,4.4c0,2.5,1.2,4.6,3.9,4.6c1.4,0,2.2-0.4,2.3-0.5v-2.6h-2.4v-2.1h5.1v6.2
			C299.7,63.7,298.4,64.7,295.4,64.7z"/>
	</g>
	<g>
		<rect x="5.9" y="37.3" class="st1" width="36.6" height="19.7"/>
		<polygon class="st1" points="64.3,7.4 64.3,20.3 60.4,20.3 60.4,7.4 56,7.4 56,4.2 68.7,4.2 68.7,7.4 		"/>
		<polygon class="st1" points="82.1,20.3 82.1,13.6 75.5,13.6 75.5,20.3 71.6,20.3 71.6,4.2 75.5,4.2 75.5,10.4 82.1,10.4 82.1,4.2
			85.9,4.2 85.9,20.3 		"/>
		<polygon class="st1" points="90.5,20.3 90.5,4.2 100.1,4.2 100.1,7.4 94.3,7.4 94.3,10.6 99.4,10.6 99.4,13.5 94.3,13.5
			94.3,17.1 100.2,17.1 100.2,20.3 		"/>
		<path class="st1" d="M64.3,42.8c-5.6,0-8.4-4-8.4-8.4c0-4.4,2.8-8.3,8.4-8.3c2.1,0,3.6,0.5,4.9,1.3l-1.7,2.8
			c-0.9-0.5-1.8-0.9-3.3-0.9c-2.8,0-4.2,2.2-4.2,5c0,2.9,1.4,5.2,4.3,5.2c1.7,0,2.7-0.6,3.5-1.2l1.6,2.7
			C68.7,41.8,66.7,42.8,64.3,42.8"/>
		<path class="st1" d="M79.7,29.3c-3.1,0-4.4,2.3-4.4,5.1c0,2.8,1.3,5.3,4.3,5.3c3.1,0,4.3-2.4,4.3-5.2
			C83.9,31.7,82.8,29.3,79.7,29.3 M79.7,42.8c-5.5,0-8.5-4-8.5-8.3c0-4.3,2.9-8.4,8.4-8.4c5.6,0,8.4,3.9,8.4,8.2
			C88,38.7,85.3,42.8,79.7,42.8"/>
		<path class="st1" d="M96.9,29.4h-1.5v4.1h1.7c1.6,0,2.4-0.7,2.4-2.1C99.4,30.1,98.7,29.4,96.9,29.4 M100.4,42.5l-2.8-4.6
			c-1-1.6-1.3-1.8-2-1.8h-0.2v6.4h-3.9V26.4h5.7c3.9,0,6.1,1.6,6.1,4.7c0,2.6-1.7,3.9-3.5,4.4v0c0.5,0.3,1.1,1,2,2.4l2.9,4.5H100.4z
			"/>
		<path class="st1" d="M112.8,29.5h-1.4v9.9h1.5c3.3,0,4.9-1.7,4.9-5.1C117.9,31,116.3,29.5,112.8,29.5 M112.6,42.5h-5.1V26.4h5.2
			c6.3,0,9.2,3.2,9.2,7.8C122,38.9,119,42.5,112.6,42.5"/>
		<rect x="125.7" y="26.4" class="st1" width="3.9" height="16.1"/>
		<path class="st1" d="M138.3,42.8c-2.7,0-4.4-1-5.1-1.6l1.6-2.7c0.4,0.2,1.6,1.2,3.4,1.2c1.5,0,2.3-0.7,2.3-1.6
			c0-1.3-1.7-1.5-3.5-2.5c-2-1-3.4-2.2-3.4-4.9c0-2.8,2.3-4.6,5.4-4.6c2.7,0,4.1,0.8,4.9,1.4l-1.5,2.7c-0.6-0.3-1.8-1-3.1-1
			c-1.2,0-1.9,0.5-1.9,1.4c0,1.1,1.3,1.4,3,2.2c2.1,0.9,4,2,4,4.9C144.2,40.9,142,42.8,138.3,42.8"/>
		<polygon class="st1" points="158.2,42.5 158.2,35.8 151.6,35.8 151.6,42.5 147.7,42.5 147.7,26.4 151.6,26.4 151.6,32.6
			158.2,32.6 158.2,26.4 162.1,26.4 162.1,42.5 		"/>
		<path class="st1" d="M64.3,64.8c-5.6,0-8.4-4-8.4-8.4c0-4.4,2.8-8.3,8.4-8.3c2.1,0,3.6,0.5,4.9,1.3l-1.7,2.8
			c-0.9-0.5-1.8-0.9-3.3-0.9c-2.8,0-4.2,2.2-4.2,5c0,2.9,1.4,5.2,4.3,5.2c1.7,0,2.7-0.6,3.5-1.2l1.6,2.7
			C68.7,63.8,66.7,64.8,64.3,64.8"/>
		<path class="st1" d="M79.7,51.2c-3.1,0-4.4,2.3-4.4,5.1c0,2.8,1.3,5.3,4.3,5.3c3.1,0,4.3-2.4,4.3-5.2
			C83.9,53.7,82.8,51.2,79.7,51.2 M79.7,64.8c-5.5,0-8.5-4-8.5-8.3c0-4.3,2.9-8.4,8.4-8.4c5.6,0,8.4,3.9,8.4,8.2
			C88,60.7,85.3,64.8,79.7,64.8"/>
		<path class="st1" d="M98.2,64.5l-2.4-7.6c-0.3-1-0.6-2.3-0.6-2.3h0c0,0-0.1,1.3-0.2,2.4L94,64.5h-3.5l2.2-16.1h3.8l3,9.6
			c0.3,1.1,0.7,2.6,0.7,2.7h0c0-0.1,0.4-1.6,0.8-2.7l3.1-9.6h3.8l2.2,16.1h-4l-0.9-7.6c-0.1-1.2-0.2-2.3-0.3-2.4h0
			c0,0.1-0.3,1.2-0.7,2.3l-2.4,7.6H98.2z"/>
		<path class="st1" d="M118.9,51.3h-1.5v4.8h1.4c1.9,0,2.8-0.8,2.8-2.4C121.6,52.1,120.8,51.3,118.9,51.3 M118.8,59h-1.4v5.5h-3.9
			V48.4h5.7c3.6,0,6.3,1.6,6.3,5.2C125.5,57.2,122.9,59,118.8,59"/>
		<path class="st1" d="M134.1,55.4c-0.5-1.4-0.8-2.7-0.8-2.8h0c0,0.1-0.4,1.4-0.8,2.8l-1.1,3.3h4L134.1,55.4z M129.3,64.5h-3.9
			l6.1-16.1h3.7l6.3,16.1h-4.2l-1-2.7h-6.1L129.3,64.5z"/>
		<path class="st1" d="M155.2,64.5l-5.7-8.1c-1-1.4-1.6-2.4-1.6-2.5h0c0,0.1,0.1,1.2,0.1,2.2v8.4h-3.5V48.4h3.9l5.2,7.5
			c1,1.5,1.7,2.7,1.8,2.8h0c0-0.2-0.1-1.4-0.1-2.6v-7.7h3.5v16.1H155.2z"/>
		<rect x="163" y="48.4" class="st1" width="3.9" height="16.1"/>
		<polygon class="st1" points="171.4,64.5 171.4,48.4 181,48.4 181,51.6 175.3,51.6 175.3,54.7 180.4,54.7 180.4,57.7 175.3,57.7
			175.3,61.3 181.2,61.3 181.2,64.5 		"/>
		<path class="st1" d="M188.9,64.8c-2.7,0-4.4-1-5.1-1.6l1.6-2.7c0.4,0.2,1.6,1.2,3.4,1.2c1.5,0,2.3-0.7,2.3-1.6
			c0-1.3-1.7-1.5-3.5-2.5c-2-1-3.4-2.2-3.4-4.9c0-2.8,2.3-4.6,5.4-4.6c2.7,0,4.1,0.8,4.9,1.4l-1.5,2.7c-0.6-0.3-1.8-1-3.1-1
			c-1.2,0-1.9,0.5-1.9,1.4c0,1.1,1.3,1.4,3,2.2c2.1,0.9,4,2,4,5C194.9,62.9,192.7,64.8,188.9,64.8"/>
		<path class="st1" d="M45.1,4.3H2.9v60.2h42.2V4.3z M41.8,61.3H6.1V7.5h35.7V61.3z"/>
		<rect x="11.9" y="29.5" class="st1" width="5.9" height="28.5"/>
		<rect x="17" y="21.2" class="st1" width="7.8" height="35.4"/>
		<rect x="23.6" y="21.2" class="st1" width="7.4" height="35.4"/>
		<rect x="29.5" y="29.5" class="st1" width="6.6" height="28.5"/>
		<rect x="5.1" y="50" class="st1" width="38.2" height="12.3"/>
		<rect x="41.2" y="4.3" class="st1" width="3.9" height="33.9"/>
		<rect x="2.9" y="4.3" class="st1" width="3.9" height="33.9"/>
		<rect x="4" y="4.3" class="st1" width="38.4" height="3.9"/>
	</g>
</g>
</svg>
