<svg xmlns="http://www.w3.org/2000/svg" viewBox="0 0 190.3 60">
  <title>logo-color</title>
  <g>
    <g>
      <path d="M61.7,3.7V16.4H57.8V3.7H53.5V0.5H66.1V3.7H61.7Z" transform="translate(-0.8 -0.5)" style="fill: #333"/>
      <path d="M79.3,16.4V9.8H72.8v6.7H68.9V0.5h3.9V6.6h6.5V0.5h3.8V16.4H79.3Z" transform="translate(-0.8 -0.5)" style="fill: #333"/>
      <path d="M87.7,16.4V0.5h9.5V3.7H91.5V6.8h5V9.7h-5v3.6h5.9v3.2H87.7Z" transform="translate(-0.8 -0.5)" style="fill: #333"/>
    </g>
    <g>
      <path d="M61.8,38.7c-5.6,0-8.3-3.9-8.3-8.3s2.8-8.2,8.4-8.2a8.5,8.5,0,0,1,4.9,1.3L65,26.3a5.8,5.8,0,0,0-3.3-.9c-2.7,0-4.2,2.2-4.2,5s1.4,5.2,4.3,5.2a5.4,5.4,0,0,0,3.5-1.2L66.9,37A8.4,8.4,0,0,1,61.8,38.7Z" transform="translate(-0.8 -0.5)" style="fill: #333"/>
      <path d="M77,38.7a8,8,0,0,1-8.4-8.2,8,8,0,0,1,8.4-8.3c5.5,0,8.3,3.9,8.3,8.2S82.5,38.7,77,38.7Zm0-13.4c-3,0-4.4,2.3-4.4,5.1s1.3,5.3,4.3,5.3,4.3-2.4,4.3-5.1S80,25.3,77,25.3Z" transform="translate(-0.8 -0.5)" style="fill: #333"/>
      <path d="M97.5,38.4l-2.8-4.5c-1-1.6-1.3-1.7-1.9-1.7H92.5v6.3H88.6V22.5h5.6c3.9,0,6.1,1.6,6.1,4.7a4.2,4.2,0,0,1-3.5,4.3h0a8.3,8.3,0,0,1,1.9,2.4l2.8,4.5H97.5Zm-3.4-13H92.5v4.1h1.7c1.6,0,2.4-.7,2.4-2S95.8,25.4,94.1,25.4Z" transform="translate(-0.8 -0.5)" style="fill: #333"/>
      <path d="M109.6,38.4h-5V22.5h5.2c6.2,0,9.1,3.2,9.1,7.8S116,38.4,109.6,38.4Zm0.2-12.9h-1.4v9.8h1.5c3.3,0,4.9-1.7,4.9-5S113.3,25.6,109.8,25.6Z" transform="translate(-0.8 -0.5)" style="fill: #333"/>
      <path d="M122.6,38.4V22.5h3.9V38.4h-3.9Z" transform="translate(-0.8 -0.5)" style="fill: #333"/>
      <path d="M135,38.7a8.1,8.1,0,0,1-5-1.6l1.6-2.7a5.9,5.9,0,0,0,3.4,1.1c1.5,0,2.3-.7,2.3-1.6s-1.7-1.5-3.5-2.5-3.3-2.2-3.3-4.8,2.3-4.5,5.3-4.5a7.7,7.7,0,0,1,4.8,1.4L139,26.3a6.4,6.4,0,0,0-3.1-1c-1.2,0-1.9.5-1.9,1.4s1.2,1.4,2.9,2.2,3.9,2,3.9,4.9S138.7,38.7,135,38.7Z" transform="translate(-0.8 -0.5)" style="fill: #333"/>
      <path d="M154.8,38.4V31.8h-6.5v6.7h-3.9V22.5h3.9v6.1h6.5V22.5h3.8V38.4h-3.8Z" transform="translate(-0.8 -0.5)" style="fill: #333"/>
    </g>
    <g>
      <path d="M61.8,60.5c-5.6,0-8.3-3.9-8.3-8.3S56.3,44,61.8,44a8.5,8.5,0,0,1,4.9,1.3L65,48.1a5.8,5.8,0,0,0-3.3-.9c-2.7,0-4.2,2.2-4.2,5s1.4,5.2,4.3,5.2a5.4,5.4,0,0,0,3.5-1.2l1.6,2.7A8.4,8.4,0,0,1,61.8,60.5Z" transform="translate(-0.8 -0.5)" style="fill: #333"/>
      <path d="M77,60.5a8,8,0,0,1-8.4-8.2A8,8,0,0,1,76.9,44c5.5,0,8.3,3.9,8.3,8.2S82.5,60.5,77,60.5Zm0-13.4c-3,0-4.4,2.3-4.4,5.1s1.3,5.3,4.3,5.3,4.3-2.4,4.3-5.1S80,47.1,77,47.1Z" transform="translate(-0.8 -0.5)" style="fill: #333"/>
      <path d="M95.3,60.2L93,52.7c-0.3-1-.6-2.2-0.6-2.3h0s-0.1,1.3-.2,2.4l-0.9,7.5H87.7l2.2-15.9h3.8l3,9.5,0.7,2.7h0c0-.1.4-1.6,0.8-2.7l3.1-9.5h3.8l2.2,15.9h-3.9l-0.9-7.5c-0.1-1.2-.2-2.2-0.3-2.3h0l-0.6,2.3-2.3,7.6H95.3Z" transform="translate(-0.8 -0.5)" style="fill: #333"/>
      <path d="M115.8,54.8h-1.4v5.4h-3.9V44.3h5.6c3.5,0,6.2,1.6,6.2,5.2S119.8,54.8,115.8,54.8Zm0.1-7.6h-1.5v4.7h1.4c1.9,0,2.8-.8,2.8-2.4S117.7,47.2,115.9,47.2Z" transform="translate(-0.8 -0.5)" style="fill: #333"/>
      <path d="M126.2,60.2h-3.9l6.1-15.9h3.7l6.3,15.9h-4.2l-1-2.7h-6.1Zm4.8-9a28.8,28.8,0,0,1-.8-2.8h0c0,0.1-.4,1.4-0.8,2.8l-1.1,3.3h3.9Z" transform="translate(-0.8 -0.5)" style="fill: #333"/>
      <path d="M151.8,60.2l-5.7-8c-1-1.4-1.6-2.4-1.6-2.5h0a22.1,22.1,0,0,1,.1,2.2v8.3H141V44.3h3.9l5.2,7.4a33,33,0,0,1,1.7,2.8h0c0-.2-0.1-1.4-0.1-2.6V44.3h3.5V60.2h-3.5Z" transform="translate(-0.8 -0.5)" style="fill: #333"/>
      <path d="M159.6,60.2V44.3h3.9V60.2h-3.9Z" transform="translate(-0.8 -0.5)" style="fill: #333"/>
      <path d="M167.9,60.2V44.3h9.5v3.2h-5.7v3.1h5v2.9h-5v3.6h5.9v3.2h-9.7Z" transform="translate(-0.8 -0.5)" style="fill: #333"/>
      <path d="M185.3,60.5a8.1,8.1,0,0,1-5-1.6l1.6-2.7a5.9,5.9,0,0,0,3.4,1.1c1.5,0,2.3-.7,2.3-1.6s-1.7-1.5-3.5-2.5-3.3-2.2-3.3-4.8,2.3-4.5,5.3-4.5a7.7,7.7,0,0,1,4.8,1.4L189.2,48a6.4,6.4,0,0,0-3.1-1c-1.2,0-1.9.5-1.9,1.4s1.2,1.4,2.9,2.2,3.9,2,3.9,4.9S189,60.5,185.3,60.5Z" transform="translate(-0.8 -0.5)" style="fill: #333"/>
    </g>
    <path d="M42.7,60.2H0.8V0.5H42.7V60.2ZM38.8,4.4H4.7V33.3h5V25.5h5V17.3H28.7v8.2h5v7.8h5V4.4Z" transform="translate(-0.8 -0.5)" style="fill: #33c6f4"/>
  </g>
</svg>
