<?xml version="1.0" encoding="utf-8"?>
<!-- Generator: Adobe Illustrator 20.1.0, SVG Export Plug-In . SVG Version: 6.00 Build 0)  -->
<svg version="1.1" id="Layer_1" xmlns="http://www.w3.org/2000/svg" xmlns:xlink="http://www.w3.org/1999/xlink" x="0px" y="0px"
	 width="398.8px" height="69px" viewBox="0 0 398.8 69" style="enable-background:new 0 0 398.8 69;" xml:space="preserve">
<style type="text/css">
	.st0{fill:none;stroke:#555555;stroke-miterlimit:10;}
	.st1{fill:#333333;}
	.st2{fill:#38C6F3;}
</style>
<title>resp-logo-color</title>
<line class="st0" x1="398.3" y1="0" x2="398.3" y2="69"/>
<polygon class="st1" points="61.4,11.3 61.4,24.1 57.5,24.1 57.5,11.3 53.1,11.3 53.1,8.1 65.8,8.1 65.8,11.3 "/>
<polygon class="st1" points="79.2,24.1 79.2,17.4 72.6,17.4 72.6,24.1 68.7,24.1 68.7,8.1 72.6,8.1 72.6,14.2 79.2,14.2 79.2,8.1 
	83.1,8.1 83.1,24.1 "/>
<polygon class="st1" points="87.6,24.1 87.6,8.1 97.2,8.1 97.2,11.3 91.4,11.3 91.4,14.4 96.5,14.4 96.5,17.4 91.4,17.4 91.4,21 
	97.4,21 97.4,24.1 "/>
<path class="st1" d="M61.5,46.6c-5.6,0-8.4-4-8.4-8.4s2.9-8.3,8.5-8.3c1.7-0.1,3.4,0.4,4.9,1.3l-1.7,2.8c-1-0.6-2.1-0.9-3.3-0.9
	c-2.8,0-4.3,2.2-4.3,5s1.4,5.2,4.3,5.2c1.3,0,2.5-0.4,3.5-1.2l1.6,2.7C65.2,46,63.3,46.6,61.5,46.6"/>
<path class="st1" d="M76.9,33.1c-3.1,0-4.4,2.3-4.4,5.1s1.3,5.3,4.3,5.3s4.3-2.4,4.3-5.2S79.9,33.1,76.9,33.1 M76.9,46.6
	c-4.5,0.2-8.3-3.2-8.5-7.6c0-0.2,0-0.5,0-0.7c-0.2-4.4,3.2-8.1,7.7-8.3c0.3,0,0.5,0,0.8,0c5.6,0,8.4,3.9,8.4,8.2
	S82.4,46.7,76.9,46.6"/>
<path class="st1" d="M94,33.2h-1.5v4.1h1.7c1.6,0,2.4-0.8,2.4-2S95.8,33.2,94,33.2 M97.4,46.3l-2.8-4.6c-1-1.6-1.3-1.8-2-1.8h-0.2
	v6.3h-3.8V30.3h5.7c3.9,0,6.1,1.6,6.1,4.7c0.1,2.1-1.4,4-3.5,4.4l0,0c0.8,0.7,1.5,1.5,2,2.4l2.9,4.5L97.4,46.3z"/>
<path class="st1" d="M110,33.3h-1.4v9.9h1.5c3.3,0,4.9-1.7,4.9-5.1S113.5,33.3,110,33.3 M109.9,46.3h-5.1V30.3h5.2
	c6.3,0,9.2,3.2,9.2,7.8S116.3,46.3,109.9,46.3"/>
<rect x="122.8" y="30.3" class="st1" width="3.9" height="16.1"/>
<path class="st1" d="M135.4,46.6c-1.8,0.1-3.6-0.5-5.1-1.6l1.6-2.7c1,0.7,2.2,1.1,3.4,1.2c1.5,0,2.3-0.7,2.3-1.6
	c0-1.3-1.7-1.5-3.6-2.5s-3.4-2.3-3.4-4.9c0-2.8,2.3-4.6,5.4-4.6c1.7-0.1,3.4,0.4,4.9,1.4l-1.5,2.7c-0.9-0.6-2-0.9-3.1-1
	c-1.2,0-1.9,0.5-1.9,1.5c0,1.1,1.3,1.5,3,2.2c2.1,0.9,4,2,4,5S139.1,46.6,135.4,46.6"/>
<polygon class="st1" points="155.4,46.3 155.4,39.6 148.8,39.6 148.8,46.3 144.9,46.3 144.9,30.3 148.8,30.3 148.8,36.4 155.4,36.4 
	155.4,30.3 159.2,30.3 159.2,46.3 "/>
<path class="st1" d="M61.5,68.6c-5.6,0-8.4-4-8.4-8.3s2.8-8.3,8.5-8.3c1.7-0.1,3.4,0.4,4.9,1.3l-1.7,2.8c-1-0.6-2.1-0.9-3.3-0.9
	c-2.8,0-4.3,2.2-4.3,5s1.4,5.2,4.3,5.2c1.3,0,2.5-0.4,3.5-1.2l1.6,2.7C65.1,68,63.3,68.6,61.5,68.6"/>
<path class="st1" d="M76.9,55c-3.1,0-4.4,2.3-4.4,5.1s1.3,5.3,4.3,5.3s4.3-2.4,4.3-5.2S79.9,55,76.9,55 M76.9,68.6
	c-4.6,0-8.4-3.7-8.4-8.3c0-4.6,3.7-8.4,8.3-8.4c5.6,0,8.4,3.9,8.4,8.2S82.4,68.6,76.9,68.6"/>
<path class="st1" d="M95.3,68.3L93,60.7c-0.3-1-0.6-2.3-0.6-2.3l0,0c0,0-0.1,1.3-0.2,2.4l-0.9,7.6h-3.5L90,52.2h3.8l3,9.6
	c0.3,1.1,0.7,2.6,0.8,2.7l0,0c0-0.1,0.4-1.6,0.8-2.7l3.1-9.6h3.8l2.2,16.1h-4l-0.9-7.6c-0.1-1.2-0.2-2.3-0.3-2.4l0,0
	c0,0.1-0.3,1.2-0.7,2.3l-2.4,7.6H95.3z"/>
<path class="st1" d="M116.1,55.2h-1.5v4.8h1.4c1.9,0,2.8-0.8,2.8-2.4S118,55.2,116.1,55.2 M116,62.9h-1.4v5.5h-3.9V52.2h5.7
	c3.6,0,6.3,1.6,6.3,5.2S120,62.8,116,62.9"/>
<path class="st1" d="M131.2,59.2c-0.3-0.9-0.6-1.9-0.8-2.8l0,0c0,0.1-0.4,1.5-0.8,2.8l-1.1,3.3h4L131.2,59.2z M126.4,68.3h-3.9
	l6.1-16.1h3.7l6.3,16.1h-4.3l-1-2.7h-6.1L126.4,68.3z"/>
<path class="st1" d="M152.3,68.3l-5.7-8.1c-1-1.4-1.6-2.4-1.6-2.5l0,0c0.1,0.7,0.1,1.5,0.1,2.3v8.4h-3.5V52.2h3.9l5.2,7.5
	c0.6,0.9,1.2,1.9,1.8,2.8l0,0c0-0.2-0.1-1.4-0.1-2.6v-7.7h3.5v16.1H152.3z"/>
<rect x="160.1" y="52.2" class="st1" width="3.9" height="16.1"/>
<polygon class="st1" points="168.6,68.3 168.6,52.2 178.2,52.2 178.2,55.4 172.4,55.4 172.4,58.5 177.5,58.5 177.5,61.5 172.4,61.5 
	172.4,65.1 178.3,65.1 178.3,68.3 "/>
<path class="st1" d="M186.1,68.6c-1.8,0-3.6-0.5-5.1-1.6l1.6-2.7c1,0.7,2.2,1.1,3.4,1.2c1.5,0,2.3-0.7,2.3-1.6
	c0-1.3-1.7-1.5-3.6-2.5s-3.4-2.3-3.4-4.9c0-2.8,2.3-4.6,5.4-4.6c1.7-0.1,3.4,0.4,4.9,1.4L190,56c-0.9-0.6-1.9-0.9-3-1
	c-1.2,0-1.9,0.5-1.9,1.5c0,1.1,1.3,1.5,3,2.2c2.1,0.9,4,2,4,5C192.1,66.7,189.9,68.6,186.1,68.6"/>
<rect x="3.1" y="41.1" class="st2" width="36.5" height="19.7"/>
<path class="st2" d="M42.2,8.1H0v60.2h42.2V8.1z M39,65.1H3.2V11.3H39V65.1z"/>
<rect x="9" y="33.3" class="st2" width="5.9" height="28.5"/>
<rect x="14.1" y="25" class="st2" width="7.8" height="35.4"/>
<rect x="20.7" y="25" class="st2" width="7.4" height="35.4"/>
<rect x="26.6" y="33.3" class="st2" width="6.6" height="28.5"/>
<rect x="2.2" y="53.8" class="st2" width="38.2" height="12.3"/>
<rect x="38.3" y="8.1" class="st2" width="3.9" height="33.8"/>
<rect y="8.1" class="st2" width="3.9" height="33.8"/>
<rect x="1.1" y="8.1" class="st2" width="38.4" height="3.9"/>
<path class="st1" d="M228.3,46.8c-4.5,0-6.7-3.2-6.7-6.8c-0.2-3.6,2.6-6.6,6.1-6.8c0.2,0,0.4,0,0.6,0c1.4-0.1,2.8,0.3,3.9,1l-1.2,2
	c-0.8-0.5-1.8-0.8-2.7-0.8c-2.5,0-3.8,2-3.8,4.4s1.3,4.6,3.8,4.6c1.1,0,2.1-0.3,3-1l1.1,1.9C231.3,46.3,229.8,46.8,228.3,46.8z"/>
<path class="st1" d="M240.2,46.8c-3.6,0.2-6.7-2.6-6.8-6.2c0-0.2,0-0.3,0-0.5c-0.2-3.7,2.7-6.9,6.4-7c3.7-0.2,6.9,2.7,7,6.4
	c0,0.2,0,0.3,0,0.5C246.8,43.6,244.5,46.8,240.2,46.8z M240.2,35.5c-2.6,0-3.9,2-3.9,4.5s1.2,4.6,3.8,4.6s3.8-2.1,3.8-4.5
	S242.8,35.5,240.2,35.5z"/>
<path class="st1" d="M256.5,46.6l-2.4-3.7c-1-1.5-1.2-1.7-1.9-1.7h-0.2v5.4h-2.8V33.5h4.4c3.1,0,4.8,1.3,4.8,3.8
	c0.1,1.8-1.2,3.3-3,3.5l0,0c0.6,0.5,1.1,1.2,1.5,1.9l2.5,3.9L256.5,46.6z M253.5,35.6h-1.4v3.6h1.5c1.5,0,2.2-0.7,2.2-1.8
	S255.1,35.6,253.5,35.6L253.5,35.6z"/>
<path class="st1" d="M265.4,41.9h-1.2v4.7h-2.8V33.5h4.3c2.9,0,5,1.3,5,4.1S268.6,41.9,265.4,41.9z M265.5,35.6h-1.3v4.2h1.2
	c1.8,0,2.5-0.7,2.5-2.2S267.2,35.6,265.5,35.6z"/>
<path class="st1" d="M279.1,46.8c-3.6,0.2-6.7-2.6-6.8-6.2c0-0.2,0-0.3,0-0.5c-0.2-3.7,2.7-6.9,6.4-7c3.7-0.2,6.9,2.7,7,6.4
	c0,0.2,0,0.3,0,0.5C285.8,43.6,283.5,46.8,279.1,46.8z M279.1,35.5c-2.6,0-3.9,2-3.9,4.5s1.2,4.6,3.8,4.6s3.8-2.1,3.8-4.5
	S281.7,35.5,279.1,35.5z"/>
<path class="st1" d="M295.4,46.6l-2.4-3.7c-1-1.5-1.2-1.7-1.9-1.7H291v5.4h-2.8V33.5h4.4c3.1,0,4.8,1.3,4.8,3.8
	c0.1,1.8-1.2,3.3-3,3.5l0,0c0.6,0.5,1.1,1.2,1.5,1.9l2.5,3.9L295.4,46.6z M292.4,35.6H291v3.6h1.5c1.5,0,2.2-0.7,2.2-1.8
	S294,35.6,292.4,35.6L292.4,35.6z"/>
<path class="st1" d="M301.8,46.6H299l5-13.1h2.7l5.1,13.1h-3l-0.9-2.5h-5.2L301.8,46.6z M306,38.8c-0.4-1.1-0.7-2.1-0.7-2.3l0,0
	c0,0.1-0.3,1.2-0.7,2.3l-1.1,3.1h3.6L306,38.8z"/>
<path class="st1" d="M317.9,35.8v10.8h-2.8V35.8h-3.6v-2.3h10v2.3L317.9,35.8z"/>
<path class="st1" d="M323.4,46.6V33.5h7.5v2.3h-4.8v3h4.2v2.2h-4.2v3.4h5v2.3L323.4,46.6z"/>
<path class="st1" d="M229.5,68.7l-2.4-3.7c-1-1.5-1.2-1.7-1.9-1.7h-0.2v5.4h-2.8V55.6h4.4c3.1,0,4.8,1.3,4.8,3.8
	c0.1,1.8-1.2,3.3-3,3.5l0,0c0.6,0.5,1.1,1.2,1.5,1.9l2.5,3.9L229.5,68.7z M226.5,57.7h-1.4v3.6h1.5c1.5,0,2.2-0.7,2.2-1.8
	S228.1,57.7,226.5,57.7L226.5,57.7z"/>
<path class="st1" d="M234.5,68.7V55.6h7.5v2.3h-4.8v3h4.2V63h-4.2v3.4h5v2.3L234.5,68.7z"/>
<path class="st1" d="M248,68.9c-1.4,0-2.9-0.4-4-1.3l1.2-1.9c0.8,0.6,1.8,1,2.8,1c1.3,0,2.1-0.7,2.1-1.5c0-1.2-1.4-1.5-2.9-2.3
	s-2.8-1.8-2.8-3.9s1.9-3.6,4.2-3.6c1.4-0.1,2.7,0.3,3.8,1.1l-1.1,1.9c-0.8-0.5-1.6-0.8-2.5-0.8c-1.1,0-1.8,0.5-1.8,1.3s1,1.4,2.4,2
	c1.7,0.8,3.4,1.7,3.4,4.1C252.7,67.5,250.9,68.9,248,68.9z"/>
<path class="st1" d="M259,64h-1.2v4.7H255V55.6h4.3c2.9,0,5,1.3,5,4.1S262.3,64,259,64z M259.1,57.7h-1.3v4.2h1.2
	c1.8,0,2.5-0.7,2.5-2.2S260.8,57.7,259.1,57.7L259.1,57.7z"/>
<path class="st1" d="M272.7,68.9c-3.7,0.2-6.9-2.7-7.1-6.5c-0.2-3.7,2.7-6.9,6.5-7.1c0.2,0,0.3,0,0.5,0c3.6-0.2,6.6,2.6,6.8,6.1
	c0,0.2,0,0.4,0,0.6C279.4,65.6,277.1,68.9,272.7,68.9z M272.7,57.6c-2.6,0-3.9,2-3.9,4.5c0,2.5,1.2,4.6,3.8,4.6s3.8-2.1,3.8-4.5
	S275.3,57.6,272.7,57.6z"/>
<path class="st1" d="M290.6,68.7l-5.1-7.3c-0.5-0.6-0.9-1.3-1.3-2l0,0c0,0,0.1,0.9,0.1,1.8v7.5h-2.5v-13h2.8l4.7,6.8
	c0.5,0.7,1,1.4,1.4,2.2l0,0c0-0.1-0.1-1-0.1-2.1v-6.9h2.5v13.1H290.6z"/>
<path class="st1" d="M299.5,68.9c-1.4,0-2.9-0.4-4-1.3l1.2-1.9c0.8,0.6,1.8,1,2.8,1c1.3,0,2.1-0.7,2.1-1.5c0-1.2-1.4-1.5-2.9-2.3
	s-2.9-1.8-2.9-3.9s1.9-3.6,4.2-3.6c1.4-0.1,2.7,0.3,3.8,1.1l-1.1,1.9c-0.8-0.5-1.6-0.8-2.5-0.8c-1.1,0-1.8,0.5-1.8,1.3s1,1.4,2.4,2
	c1.7,0.8,3.4,1.7,3.4,4.1C304.1,67.5,302.4,68.9,299.5,68.9z"/>
<path class="st1" d="M306.6,68.7V55.6h2.8v13.1H306.6z"/>
<path class="st1" d="M317.2,68.7h-4.3V55.6h4.4c2.4,0,4.5,0.8,4.5,3.3c0.1,1.4-0.9,2.7-2.3,3l0,0c1.6,0.1,2.9,1.5,2.9,3.1
	C322.4,67.7,320.2,68.7,317.2,68.7z M317,57.7h-1.4v3.3h1.3c1.5,0,2.1-0.5,2.1-1.7S318.4,57.7,317,57.7L317,57.7z M317.2,62.9h-1.6
	v3.6h1.5c1.6,0,2.4-0.5,2.4-1.8S318.8,63,317.2,62.9L317.2,62.9z"/>
<path class="st1" d="M324.9,68.7V55.6h2.8v13.1H324.9z"/>
<path class="st1" d="M331.2,68.7V55.6h2.8v10.8h4.9v2.2H331.2z"/>
<path class="st1" d="M341.4,68.7V55.6h2.8v13.1H341.4z"/>
<path class="st1" d="M352.6,57.9v10.8h-2.8V57.9h-3.6v-2.3h10v2.3H352.6z"/>
<path class="st1" d="M364.3,63.8v4.9h-2.8v-4.9l-4.3-8.1h3.1l2.8,5.5l0,0l2.8-5.6h2.7L364.3,63.8z"/>
</svg>
